<?xml version="1.0" encoding="utf-8"?>
<svg version="1.1" xmlns:xlink="http://www.w3.org/1999/xlink" width="31px" height="31px" xmlns="http://www.w3.org/2000/svg">
  <defs>
    <filter x="448px" y="219px" width="31px" height="31px" filterUnits="userSpaceOnUse" id="filter11">
      <feOffset dx="0" dy="0" in="SourceAlpha" result="shadowOffsetInner" />
      <feGaussianBlur stdDeviation="5" in="shadowOffsetInner" result="shadowGaussian" />
      <feComposite in2="shadowGaussian" operator="atop" in="SourceAlpha" result="shadowComposite" />
      <feColorMatrix type="matrix" values="0 0 0 0 0  0 0 0 0 0  0 0 0 0 0  0 0 0 0.313725490196078 0  " in="shadowComposite" />
    </filter>
    <g id="widget12">
      <path d="M 463.5 230  C 466.02 230  468 231.98  468 234.5  C 468 237.02  466.02 239  463.5 239  C 460.98 239  459 237.02  459 234.5  C 459 231.98  460.98 230  463.5 230  Z " fill-rule="nonzero" fill="#ffffff" stroke="none" fill-opacity="0" />
      <path d="M 463.5 230  C 466.02 230  468 231.98  468 234.5  C 468 237.02  466.02 239  463.5 239  C 460.98 239  459 237.02  459 234.5  C 459 231.98  460.98 230  463.5 230  Z " stroke-width="2" stroke="#f59a23" fill="none" />
    </g>
  </defs>
  <g transform="matrix(1 0 0 1 -448 -219 )">
    <use xlink:href="#widget12" filter="url(#filter11)" />
    <use xlink:href="#widget12" />
  </g>
</svg>