<?xml version="1.0" encoding="utf-8"?>
<svg version="1.1" xmlns:xlink="http://www.w3.org/1999/xlink" width="55px" height="19px" xmlns="http://www.w3.org/2000/svg">
  <defs>
    <mask fill="white" id="clip10">
      <path d="M 0 19  L 0 0  L 27.5999999999985 0  L 50 0  C 52.8 0  55 2.19999999999999  55 5  L 55 14  C 55 16.8  52.8 19  50 19  L 0 19  Z " fill-rule="evenodd" />
    </mask>
  </defs>
  <g transform="matrix(1 0 0 1 -381 -226 )">
    <path d="M 0 19  L 0 0  L 27.5999999999985 0  L 50 0  C 52.8 0  55 2.19999999999999  55 5  L 55 14  C 55 16.8  52.8 19  50 19  L 0 19  Z " fill-rule="nonzero" fill="#0079fe" stroke="none" transform="matrix(1 0 0 1 381 226 )" />
    <path d="M 0 19  L 0 0  L 27.5999999999985 0  L 50 0  C 52.8 0  55 2.19999999999999  55 5  L 55 14  C 55 16.8  52.8 19  50 19  L 0 19  Z " stroke-width="2" stroke="#b8741a" fill="none" transform="matrix(1 0 0 1 381 226 )" mask="url(#clip10)" />
  </g>
</svg>